<svg width="64" height="64" viewBox="0 0 64 64" fill="none" xmlns="http://www.w3.org/2000/svg">
  <rect width="64" height="64" rx="14" fill="#0EA5E9" opacity="0.16"/>
  <path d="M16 22C16 20.8954 16.8954 20 18 20H34C35.1046 20 36 20.8954 36 22V30C36 31.1046 35.1046 32 34 32H18C16.8954 32 16 31.1046 16 30V22Z" stroke="#38BDF8" stroke-width="2.4" fill="rgba(56,189,248,0.15)"/>
  <path d="M28 34C28 32.8954 28.8954 32 30 32H46C47.1046 32 48 32.8954 48 34V42C48 43.1046 47.1046 44 46 44H30C28.8954 44 28 43.1046 28 42V34Z" stroke="#34D399" stroke-width="2.4" fill="rgba(52,211,153,0.15)"/>
  <circle cx="24" cy="26" r="2" fill="#38BDF8"/>
  <circle cx="40" cy="38" r="2" fill="#34D399"/>
  <path d="M26 26H42" stroke="#38BDF8" stroke-width="2" stroke-linecap="round"/>
  <path d="M32 22V18" stroke="#38BDF8" stroke-width="2" stroke-linecap="round"/>
  <path d="M32 46V42" stroke="#34D399" stroke-width="2" stroke-linecap="round"/>
</svg>
